# xmcd
#
# Track frame offsets:
#	150
#	19062
#	40842
#	57742
#	70822
#	81500
#	99105
#	115018
#	131858
#	158528
#	176050
#	189802
#	201332
#	213085
#
# Disc length: 3181 seconds
#
# Revision: 5
# Processed by: cddbd v1.5.2PL0 Copyright (c) Steve Scherf et al.
# Submitted via: EasyCDDAExtractor 11.1.0.1
#
DISCID=bc0c6b0e
DTITLE=Bukka White - Mississippi Blues (Takoma)
DYEAR=1964
DGENRE=Blues
TTITLE0=Aberdeen Mississippi Blues
TTITLE1=Baby Please Don't Go
TTITLE2=New Orleans Streamline
TTITLE3=Parchman Farm Blues
TTITLE4=Poor Boy Long Way From Home
TTITLE5=Rememberance Of Charlie Patton
TTITLE6=Shake 'Em On Down
TTITLE7=I Am In The Heavenly Way
TTITLE8=The Atlanta Special
TTITLE9=Drunk Man Blues (Piano)
TTITLE10=Army Blues
TTITLE11=World Boogie
TTITLE12=Midnight Blue
TTITLE13=Old Man Walking Blues
EXTD=
EXTT0=
EXTT1=
EXTT2=
EXTT3=
EXTT4=
EXTT5=
EXTT6=
EXTT7=
EXTT8=
EXTT9=
EXTT10=
EXTT11=
EXTT12=
EXTT13=
PLAYORDER=
